<?xml version="1.0" encoding="UTF-8" standalone="no"?>
<svg
   xmlns:dc="http://purl.org/dc/elements/1.1/"
   xmlns:cc="http://creativecommons.org/ns#"
   xmlns:rdf="http://www.w3.org/1999/02/22-rdf-syntax-ns#"
   xmlns:svg="http://www.w3.org/2000/svg"
   xmlns="http://www.w3.org/2000/svg"
   viewBox="0 0 793.70667 377.94666"
   height="377.94666"
   width="793.70667"
   xml:space="preserve"
   id="svg2"
   version="1.1"><metadata
     id="metadata8"><rdf:RDF><cc:Work
         rdf:about=""><dc:format>image/svg+xml</dc:format><dc:type
           rdf:resource="http://purl.org/dc/dcmitype/StillImage" /></cc:Work></rdf:RDF></metadata><defs
     id="defs6" /><g
     transform="matrix(1.3333333,0,0,-1.3333333,0,377.94667)"
     id="g10"><g
       transform="scale(0.1)"
       id="g12"><path
         id="path14"
         style="fill:#231f20;fill-opacity:1;fill-rule:nonzero;stroke:none"
         d="m 2397.72,1205.65 c 34.09,-21.19 75.33,-31.78 123.75,-31.78 55.83,0 102.07,14.12 138.74,42.37 36.65,28.24 62.14,66.24 76.49,114 l -71.29,19.18 c -9.42,-33.65 -26.18,-60.14 -50.26,-79.54 -24.11,-19.4 -55.33,-29.08 -93.68,-29.08 -34.29,0 -62.94,7.74 -85.9,23.19 -22.99,15.49 -40.26,37.09 -51.8,64.92 -11.54,27.78 -17.2,60.18 -16.99,97.17 0,37 5.77,69.4 17.33,97.2 11.54,27.79 28.75,49.43 51.61,64.9 22.87,15.47 51.46,23.19 85.75,23.19 38.35,0 69.57,-9.64 93.68,-28.9 24.08,-19.29 40.84,-45.86 50.26,-79.7 l 71.29,19.17 c -14.35,47.73 -39.84,85.75 -76.49,114 -36.67,28.24 -82.91,42.36 -138.74,42.36 -48.42,0 -89.66,-10.59 -123.75,-31.77 -34.07,-21.19 -60.13,-50.74 -78.19,-88.62 -18.05,-37.89 -27.06,-81.83 -27.06,-131.83 0,-49.99 9.01,-93.94 27.06,-131.83 18.06,-37.89 44.12,-67.42 78.19,-88.6" /><path
         id="path16"
         style="fill:#231f20;fill-opacity:1;fill-rule:nonzero;stroke:none"
         d="m 2867.12,1668.22 h -70.29 v -484.25 h 70.29 v 484.25" /><path
         id="path18"
         style="fill:#231f20;fill-opacity:1;fill-rule:nonzero;stroke:none"
         d="m 3073.99,1183.97 h 70.29 v 417.99 h 161.07 v 66.26 H 2912.9 v -66.26 h 161.09 v -417.99" /><path
         id="path20"
         style="fill:#231f20;fill-opacity:1;fill-rule:nonzero;stroke:none"
         d="m 3392.49,1359.17 77.43,238.82 78.34,-238.82 z m 27.6,309.05 -157.37,-484.25 h 72.96 l 35.44,109.29 h 198.76 l 35.85,-109.29 h 72.98 l -157.39,484.25 h -101.23" /><path
         id="path22"
         style="fill:#231f20;fill-opacity:1;fill-rule:nonzero;stroke:none"
         d="m 4025.13,1348.07 c -7.17,-24.44 -18.43,-45.01 -33.78,-61.72 -15.36,-16.7 -35.37,-27.41 -60.04,-32.11 -8.07,-1.33 -17.37,-2.24 -27.9,-2.7 -10.54,-0.45 -19.63,-0.64 -27.24,-0.64 h -79.7 v 350.4 h 79.7 c 7.4,0 16.42,-0.18 27.07,-0.52 10.64,-0.32 20,-1.29 28.07,-2.84 24.22,-4.5 44,-14.98 59.35,-31.46 15.36,-16.47 26.75,-36.88 34.15,-61.19 7.4,-24.33 11.08,-50.74 11.08,-79.21 0,-27.58 -3.58,-53.58 -10.76,-78.01 z m 6.91,276.42 c -25.91,22.42 -57.8,35.99 -95.68,40.7 -11.22,1.57 -22.93,2.46 -35.14,2.69 -12.22,0.21 -20.57,0.34 -25.05,0.34 h -151.68 v -484.25 h 151.68 c 4.48,0 12.83,0.11 25.05,0.34 12.21,0.19 23.92,1.1 35.14,2.66 37.88,4.71 69.77,18.22 95.68,40.54 25.89,22.32 45.44,50.68 58.67,85.08 13.23,34.42 19.86,72.25 19.86,113.49 0,41.04 -6.63,78.75 -19.86,113.17 -13.23,34.41 -32.78,62.82 -58.67,85.24" /><path
         id="path24"
         style="fill:#231f20;fill-opacity:1;fill-rule:nonzero;stroke:none"
         d="m 4484.97,1250.21 h -239.11 v 149.64 h 198.75 v 66.26 h -198.75 v 135.85 h 239.11 v 66.26 h -309.4 v -484.25 h 309.4 v 66.24" /><path
         id="path26"
         style="fill:#231f20;fill-opacity:1;fill-rule:nonzero;stroke:none"
         d="m 4835.11,1250.21 h -219.25 v 418.01 h -70.29 v -484.25 h 289.54 v 66.24" /><path
         id="path28"
         style="fill:#231f20;fill-opacity:1;fill-rule:nonzero;stroke:none"
         d="M 2396.39,861.141 H 2326.1 V 376.859 h 289.54 v 66.243 h -219.25 v 418.039" /><path
         id="path30"
         style="fill:#231f20;fill-opacity:1;fill-rule:nonzero;stroke:none"
         d="m 2773.47,552.09 77.42,238.801 78.33,-238.801 z m 27.59,309.051 -157.37,-484.282 h 72.97 l 35.43,109.289 h 198.76 l 35.85,-109.289 h 72.98 l -157.39,484.282 h -101.23" /><path
         id="path32"
         style="fill:#231f20;fill-opacity:1;fill-rule:nonzero;stroke:none"
         d="m 3488.63,494.922 -101.89,366.219 -73.99,-0.34 -101.89,-365.879 -101.9,366.219 h -73.65 l 140.57,-484.282 h 69.95 l 103.92,362.192 103.9,-362.192 h 69.97 l 140.89,484.282 h -73.99 L 3488.63,494.922" /><path
         id="path34"
         style="fill:#231f20;fill-opacity:1;fill-rule:nonzero;stroke:none"
         d="M 3879.26,657.66 3761.9,861.141 h -82.05 l 163.77,-284.18 V 376.859 h 71.29 v 200.102 l 163.77,284.18 h -82.06 L 3879.26,657.66" /><path
         id="path36"
         style="fill:#231f20;fill-opacity:1;fill-rule:nonzero;stroke:none"
         d="m 4114.04,376.859 h 309.39 v 66.243 H 4184.32 V 592.75 h 198.76 v 66.281 h -198.76 v 135.828 h 239.11 v 66.282 H 4114.04 V 376.859" /><path
         id="path38"
         style="fill:#231f20;fill-opacity:1;fill-rule:nonzero;stroke:none"
         d="m 4551.08,794.859 h 122.75 c 4.48,0 9.47,-0.23 14.95,-0.648 5.51,-0.449 10.71,-1.359 15.64,-2.691 14.35,-3.379 25.89,-9.61 34.64,-18.68 8.75,-9.07 15.02,-19.512 18.83,-31.281 3.82,-11.77 5.72,-23.571 5.72,-35.457 0,-11.883 -1.9,-23.762 -5.72,-35.641 -3.81,-11.879 -10.08,-22.359 -18.83,-31.473 -8.75,-9.078 -20.29,-15.297 -34.64,-18.636 -4.93,-1.141 -10.13,-1.903 -15.64,-2.364 -5.48,-0.449 -10.47,-0.679 -14.95,-0.679 h -122.75 z m 254.57,-188.48 c 19.72,27.902 29.59,61.152 29.59,99.723 0,26.007 -4.48,49.769 -13.46,71.296 -8.96,21.524 -22.47,39.321 -40.5,53.454 -18.05,14.117 -40.53,23.308 -67.44,27.597 -6.26,1.102 -12.89,1.821 -19.84,2.16 -6.94,0.34 -12.77,0.532 -17.48,0.532 H 4480.79 V 376.859 h 70.29 v 173.86 h 128.62 l 84.25,-173.86 h 80.38 l -91.7,188.121 c 21.92,9.29 39.87,22.801 53.02,41.399" /><path
         id="path40"
         style="fill:#231f20;fill-opacity:1;fill-rule:nonzero;stroke:none"
         d="m 5244.79,573.77 c -8.75,15.558 -19.79,28.089 -33.14,37.5 -13.32,9.421 -27.12,16.75 -41.36,22.019 -14.23,5.281 -26.95,9.449 -38.17,12.609 l -89.44,25.204 c -11.44,3.148 -22.92,7.136 -34.47,11.957 -11.55,4.82 -21.25,11.39 -29.09,19.66 -7.86,8.32 -11.77,19.179 -11.77,32.609 0,13.711 4.42,25.82 13.29,36.332 8.84,10.559 20.72,18.719 35.64,24.57 14.9,5.801 31.32,8.5 49.26,8.04 18.62,-0.219 35.87,-3.829 51.8,-10.891 15.9,-7.059 29.36,-17.16 40.35,-30.301 10.97,-13.09 18.17,-28.726 21.53,-46.879 l 75.31,12.762 c -6.49,29.801 -18.31,55.187 -35.47,76.187 -17.14,20.954 -38.67,37.012 -64.56,48.25 -25.91,11.204 -55.21,17.043 -87.94,17.461 -32.51,0 -61.88,-5.32 -88.11,-15.949 -26.23,-10.66 -47.03,-26.34 -62.39,-47.109 -15.35,-20.723 -23.02,-46.012 -23.02,-75.813 0,-19.738 3.24,-36.476 9.74,-50.258 6.51,-13.82 14.97,-25.359 25.39,-34.66 10.42,-9.3 21.91,-16.808 34.47,-22.511 12.55,-5.731 24.89,-10.399 37,-13.969 l 124.08,-36.668 c 8.97,-2.703 17.21,-5.883 24.73,-9.57 7.49,-3.723 13.89,-8.082 19.15,-13.133 5.28,-5.008 9.43,-10.93 12.45,-17.649 3.02,-6.718 4.54,-14.468 4.54,-23.199 0,-16.133 -4.99,-29.992 -14.96,-41.531 -9.98,-11.539 -23.16,-20.379 -39.52,-26.57 -16.36,-6.149 -34.3,-9.231 -53.81,-9.231 -31.38,0 -58.84,8.242 -82.38,24.723 -23.55,16.468 -39.02,39.508 -46.41,69.09 l -73.32,-11.09 c 5.39,-30.711 17.1,-57.242 35.15,-79.532 18.03,-22.32 41.02,-39.48 68.94,-51.48 27.9,-11.949 59.24,-17.988 94,-17.988 24.88,0 48.53,3.148 70.95,9.449 22.41,6.269 42.19,15.609 59.35,28.059 17.16,12.449 30.66,27.902 40.52,46.421 9.88,18.489 14.81,39.938 14.81,64.387 0,23.531 -4.38,43.094 -13.12,58.692" /><path
         id="path42"
         style="fill:#7b7979;fill-opacity:1;fill-rule:nonzero;stroke:none"
         d="M 999.559,2530.18 V 569.211 H 1758.22 V 2530.18 H 999.559" /><path
         id="path44"
         style="fill:#231f20;fill-opacity:1;fill-rule:nonzero;stroke:none"
         d="M 736.168,392.512 H 1207.84 V 2225.8 H 736.168 Z M 1249.17,351.191 H 694.844 V 2267.12 H 1249.17 V 351.191" /><path
         id="path46"
         style="fill:#bdbcbc;fill-opacity:1;fill-rule:nonzero;stroke:none"
         d="M 1549.93,1658.19 V 290.691 H 2021.6 V 1658.19 h -471.67" /><path
         id="path48"
         style="fill:#ffffff;fill-opacity:1;fill-rule:nonzero;stroke:none"
         d="M 1549.93,290.691 H 2021.6 V 1658.19 h -471.67 z m 512.99,-41.32 H 1508.61 V 1699.51 h 554.31 V 249.371" /><path
         id="path50"
         style="fill:#ffffff;fill-opacity:1;fill-rule:nonzero;stroke:none"
         d="M 999.559,569.211 H 1758.22 V 2530.18 H 999.559 Z M 1813.32,514.109 H 944.453 V 2585.29 H 1813.32 V 514.109" /></g></g></svg>