<?xml version="1.0" encoding="utf-8"?>
<!-- Generator: Adobe Illustrator 27.3.1, SVG Export Plug-In . SVG Version: 6.00 Build 0)  -->
<svg version="1.1" id="Шар_1" xmlns="http://www.w3.org/2000/svg" xmlns:xlink="http://www.w3.org/1999/xlink" x="0px" y="0px"
	 viewBox="0 0 595.28 283.46" style="enable-background:new 0 0 595.28 283.46;" xml:space="preserve">
<style type="text/css">
	.st0{fill:#E0E0E0;}
	.st1{fill:#868686;}
	.st2{fill:#1E1D1C;}
	.st3{fill:#C5C5C5;}
	.st4{fill:#FFFFFF;}
</style>
<g>
	<g>
		<path class="st0" d="M239.77,162.9c3.41,2.12,7.53,3.18,12.38,3.18c5.58,0,10.21-1.41,13.87-4.24c3.67-2.82,6.21-6.62,7.65-11.4
			l-7.13-1.92c-0.94,3.36-2.62,6.01-5.03,7.95c-2.41,1.94-5.53,2.91-9.37,2.91c-3.43,0-6.29-0.77-8.59-2.32
			c-2.3-1.55-4.03-3.71-5.18-6.49c-1.15-2.78-1.72-6.02-1.7-9.72c0-3.7,0.58-6.94,1.73-9.72c1.15-2.78,2.88-4.94,5.16-6.49
			c2.29-1.55,5.15-2.32,8.58-2.32c3.83,0,6.96,0.96,9.37,2.89c2.41,1.93,4.08,4.59,5.03,7.97l7.13-1.92
			c-1.43-4.77-3.98-8.58-7.65-11.4c-3.67-2.82-8.29-4.24-13.87-4.24c-4.84,0-8.97,1.06-12.38,3.18c-3.41,2.12-6.01,5.07-7.82,8.86
			c-1.81,3.79-2.71,8.18-2.71,13.18c0,5,0.9,9.39,2.71,13.18S236.36,160.78,239.77,162.9z"/>
		<rect x="279.68" y="116.64" class="st0" width="7.03" height="48.43"/>
		<polygon class="st0" points="307.4,165.07 314.43,165.07 314.43,123.27 330.54,123.27 330.54,116.64 291.29,116.64 291.29,123.27 
			307.4,123.27 		"/>
		<path class="st0" d="M342.01,116.64l-15.74,48.43h7.3l3.54-10.93h19.88l3.58,10.93h7.3l-15.74-48.43H342.01z M339.25,147.55
			l7.74-23.88l7.83,23.88H339.25z"/>
		<path class="st0" d="M403.2,121.02c-2.59-2.24-5.78-3.6-9.57-4.07c-1.12-0.16-2.29-0.25-3.51-0.27c-1.22-0.02-2.06-0.03-2.51-0.03
			h-15.17v48.43h15.17c0.45,0,1.28-0.01,2.51-0.03c1.22-0.02,2.39-0.11,3.51-0.27c3.79-0.47,6.98-1.82,9.57-4.05
			c2.59-2.23,4.54-5.07,5.87-8.51c1.32-3.44,1.99-7.23,1.99-11.35c0-4.1-0.66-7.88-1.99-11.32
			C407.75,126.1,405.79,123.26,403.2,121.02z M402.51,148.66c-0.72,2.44-1.84,4.5-3.38,6.17s-3.54,2.74-6,3.21
			c-0.81,0.13-1.74,0.22-2.79,0.27c-1.05,0.05-1.96,0.06-2.72,0.06h-7.97v-35.04h7.97c0.74,0,1.64,0.02,2.71,0.05
			c1.06,0.03,2,0.13,2.81,0.28c2.42,0.45,4.4,1.5,5.94,3.15s2.67,3.69,3.41,6.12c0.74,2.43,1.11,5.07,1.11,7.92
			C403.59,143.61,403.23,146.22,402.51,148.66z"/>
		<polygon class="st0" points="448.5,158.44 424.59,158.44 424.59,143.48 444.46,143.48 444.46,136.85 424.59,136.85 424.59,123.27 
			448.5,123.27 448.5,116.64 417.56,116.64 417.56,165.07 448.5,165.07 		"/>
		<polygon class="st0" points="483.51,158.44 461.59,158.44 461.59,116.64 454.56,116.64 454.56,165.07 483.51,165.07 		"/>
		<polygon class="st0" points="239.64,197.35 232.61,197.35 232.61,245.78 261.56,245.78 261.56,239.15 239.64,239.15 		"/>
		<path class="st0" d="M280.11,197.35l-15.74,48.43h7.3l3.54-10.93h19.88l3.58,10.93h7.3l-15.74-48.43H280.11z M277.35,228.26
			l7.74-23.88l7.83,23.88H277.35z"/>
		<polygon class="st0" points="348.86,233.97 338.67,197.35 331.28,197.39 321.09,233.97 310.9,197.35 303.53,197.35 317.59,245.78 
			324.58,245.78 334.97,209.56 345.37,245.78 352.36,245.78 366.45,197.35 359.05,197.35 		"/>
		<polygon class="st0" points="387.93,217.7 376.19,197.35 367.98,197.35 384.36,225.77 384.36,245.78 391.49,245.78 391.49,225.77 
			407.87,197.35 399.66,197.35 		"/>
		<polygon class="st0" points="411.4,245.78 442.34,245.78 442.34,239.15 418.43,239.15 418.43,224.19 438.31,224.19 438.31,217.56 
			418.43,217.56 418.43,203.98 442.34,203.98 442.34,197.35 411.4,197.35 		"/>
		<path class="st0" d="M480.57,222.83c1.97-2.79,2.96-6.12,2.96-9.97c0-2.6-0.45-4.98-1.35-7.13c-0.9-2.15-2.25-3.93-4.05-5.35
			c-1.81-1.41-4.05-2.33-6.74-2.76c-0.63-0.11-1.29-0.18-1.98-0.22c-0.69-0.03-1.28-0.05-1.75-0.05h-19.57v48.43h7.03v-17.39h12.86
			l8.43,17.39h8.04l-9.17-18.81C477.45,226.04,479.25,224.69,480.57,222.83z M455.11,203.98h12.28c0.45,0,0.95,0.02,1.5,0.06
			c0.55,0.05,1.07,0.14,1.56,0.27c1.43,0.34,2.59,0.96,3.46,1.87c0.88,0.91,1.5,1.95,1.88,3.13c0.38,1.18,0.57,2.36,0.57,3.55
			c0,1.19-0.19,2.38-0.57,3.56c-0.38,1.19-1.01,2.24-1.88,3.15c-0.88,0.91-2.03,1.53-3.46,1.86c-0.49,0.11-1.01,0.19-1.56,0.24
			c-0.55,0.05-1.05,0.07-1.5,0.07h-12.28V203.98z"/>
		<path class="st0" d="M524.48,226.09c-0.88-1.56-1.98-2.81-3.31-3.75c-1.33-0.94-2.71-1.67-4.14-2.2c-1.42-0.53-2.7-0.95-3.82-1.26
			l-8.94-2.52c-1.14-0.32-2.29-0.71-3.45-1.2c-1.16-0.48-2.13-1.14-2.91-1.97c-0.79-0.83-1.18-1.92-1.18-3.26
			c0-1.37,0.44-2.58,1.33-3.63c0.88-1.06,2.07-1.87,3.56-2.46c1.49-0.58,3.13-0.85,4.93-0.8c1.86,0.02,3.59,0.38,5.18,1.09
			c1.59,0.71,2.94,1.72,4.04,3.03c1.1,1.31,1.82,2.87,2.15,4.69l7.53-1.28c-0.65-2.98-1.83-5.52-3.55-7.62
			c-1.71-2.1-3.87-3.7-6.46-4.82c-2.59-1.12-5.52-1.7-8.79-1.75c-3.25,0-6.19,0.53-8.81,1.59c-2.62,1.07-4.7,2.63-6.24,4.71
			c-1.54,2.07-2.3,4.6-2.3,7.58c0,1.97,0.32,3.65,0.97,5.03c0.65,1.38,1.5,2.54,2.54,3.47c1.04,0.93,2.19,1.68,3.45,2.25
			c1.25,0.57,2.49,1.04,3.7,1.4l12.41,3.67c0.9,0.27,1.72,0.59,2.47,0.96c0.75,0.37,1.39,0.81,1.92,1.31
			c0.53,0.5,0.94,1.09,1.25,1.77c0.3,0.67,0.45,1.45,0.45,2.32c0,1.61-0.5,3-1.5,4.15c-1,1.15-2.32,2.04-3.95,2.66
			c-1.64,0.61-3.43,0.92-5.38,0.92c-3.14,0-5.88-0.82-8.24-2.47c-2.36-1.65-3.9-3.95-4.64-6.91l-7.33,1.11
			c0.54,3.07,1.71,5.72,3.52,7.95c1.8,2.23,4.1,3.95,6.89,5.15c2.79,1.2,5.92,1.8,9.4,1.8c2.49,0,4.85-0.32,7.1-0.95
			c2.24-0.63,4.22-1.56,5.94-2.81c1.72-1.25,3.07-2.79,4.05-4.64c0.99-1.85,1.48-3.99,1.48-6.44
			C525.79,229.6,525.35,227.65,524.48,226.09z"/>
	</g>
	<g>
		<rect x="99.96" y="30.45" class="st1" width="75.87" height="196.1"/>
		<path class="st2" d="M124.92,248.35H69.48V56.75h55.43V248.35z M73.62,244.21h47.17V60.89H73.62V244.21z"/>
		<rect x="154.99" y="117.65" class="st3" width="47.17" height="136.75"/>
		<path class="st4" d="M206.29,258.53h-55.43V113.51h55.43V258.53z M154.99,254.4h47.17V117.65h-47.17V254.4z"/>
		<path class="st4" d="M181.33,232.05H94.45V24.94h86.89V232.05z M99.96,226.54h75.87V30.45H99.96V226.54z"/>
	</g>
</g>
</svg>
