<svg width="0" height="0" class="hidden">
<symbol version="1.1" id="tax" xmlns="http://www.w3.org/2000/svg" xmlns:xlink="http://www.w3.org/1999/xlink" x="0px" y="0px" xml:space="preserve" viewBox="0 0 100 100">
    <g>
      <path d="M88.66,76.76h3.31c1.32,0,2.4-1.08,2.4-2.4v-3.31c0-1.32-1.08-2.4-2.4-2.4h-3.31c-1.32,0-2.4,1.08-2.4,2.4
		v3.31C86.26,75.69,87.34,76.76,88.66,76.76z M89.04,73.99v-2.55h2.55v2.55H89.04z"></path>
      <path d="M76.87,83.76c0,1.32,1.08,2.4,2.4,2.4h3.3c1.32,0,2.4-1.08,2.4-2.4v-3.31c0-1.32-1.08-2.4-2.4-2.4h-3.3
		c-1.32,0-2.4,1.08-2.4,2.4V83.76z M82.2,80.83v2.55h-2.55v-2.55H82.2z"></path>
      <path d="M82.58,87.44h-3.31c-1.32,0-2.4,1.08-2.4,2.4v3.31c0,1.32,1.08,2.4,2.4,2.4h3.31c1.32,0,2.4-1.08,2.4-2.4
		v-3.31C84.98,88.52,83.9,87.44,82.58,87.44z M82.2,90.22v2.55h-2.55v-2.55H82.2z"></path>
      <path d="M29.38,44.25h41.23c0.77,0,1.39-0.62,1.39-1.39s-0.62-1.39-1.39-1.39H29.38c-0.77,0-1.39,0.62-1.39,1.39
		S28.62,44.25,29.38,44.25z"></path>
      <path d="M94.58,46.24l-13.15,0V5.42C81.44,2.43,79,0,76.01,0h-42.3c-0.37,0-0.72,0.15-0.98,0.41L18.97,14.17
		c-0.26,0.26-0.41,0.61-0.41,0.98v47.23h-1.62c-1.9,0-3.44,1.55-3.44,3.44v2.86c0,0.75,0.24,1.46,0.68,2.05
		c-0.45,0.6-0.68,1.31-0.68,2.06v2.2c-0.29-0.02-0.63-0.05-0.97-0.05C5.62,74.94,0,80.56,0,87.47C0,94.38,5.62,100,12.53,100
		c0.95,0,1.93-0.12,2.91-0.36c0.48,0.23,1,0.36,1.5,0.36h18.17c1.9,0,3.44-1.55,3.44-3.44V93.7c0-0.75-0.24-1.46-0.68-2.06
		c0.45-0.6,0.68-1.31,0.68-2.05v-2.86c0-0.75-0.24-1.46-0.68-2.06c0.45-0.6,0.68-1.31,0.68-2.06v-0.15h23.18v12.09
		c0,3,2.44,5.44,5.44,5.44h27.38c3,0,5.44-2.44,5.44-5.44V51.68C100,48.69,97.57,46.26,94.58,46.24z M64.52,51.68
		c0-1.47,1.19-2.66,2.66-2.66h27.38c1.47,0,2.66,1.19,2.66,2.66v42.88c0,1.47-1.19,2.66-2.66,2.66H67.18
		c-1.47,0-2.66-1.19-2.66-2.66V51.68z M38.56,75.65v-2.86c0-0.75-0.24-1.46-0.68-2.06c0.45-0.6,0.68-1.31,0.68-2.06v-2.86
		c0-1.9-1.55-3.44-3.44-3.44H21.34V16.54h8.34c2.99,0,5.42-2.43,5.42-5.42V2.78h40.91c1.46,0,2.65,1.19,2.65,2.65v40.82H67.18
		c-2.87,0-5.23,2.23-5.43,5.05l-0.02-0.03v28.43H38.56c-0.01-0.72-0.25-1.41-0.68-1.99C38.32,77.11,38.56,76.4,38.56,75.65z
		 M23.3,13.76l9.02-9.02v6.38c0,1.46-1.19,2.65-2.65,2.65H23.3z M22.28,87.47c0,5.38-4.37,9.75-9.75,9.75
		c-5.38,0-9.75-4.37-9.75-9.75c0-5.38,4.37-9.75,9.75-9.75C17.91,77.72,22.28,82.1,22.28,87.47z M35.11,76.32H18.2
		c-0.64-0.33-1.29-0.6-1.93-0.8v-2.73c0-0.37,0.3-0.67,0.67-0.67h18.17c0.37,0,0.67,0.3,0.67,0.67v2.86
		C35.78,76.02,35.48,76.32,35.11,76.32z M35.11,69.35H16.94c-0.37,0-0.67-0.3-0.67-0.67v-2.86c0-0.37,0.3-0.67,0.67-0.67h18.17
		c0.37,0,0.67,0.3,0.67,0.67v2.86C35.78,69.05,35.48,69.35,35.11,69.35z M23.74,93.03h11.37c0.37,0,0.67,0.3,0.67,0.67v2.86
		c0,0.37-0.3,0.67-0.67,0.67H20.36C21.77,96.09,22.93,94.65,23.74,93.03z M35.11,90.26H24.73c0.22-0.94,0.33-1.88,0.33-2.78
		c0-0.43-0.03-0.89-0.09-1.41h10.15c0.37,0,0.67,0.3,0.67,0.67v2.86C35.78,89.96,35.48,90.26,35.11,90.26z M35.11,83.29H24.32
		c-0.55-1.55-1.39-2.96-2.51-4.19h13.3c0.37,0,0.67,0.3,0.67,0.67v2.86C35.78,82.99,35.48,83.29,35.11,83.29z"></path>
      <path d="M79.27,76.76h3.3c1.32,0,2.4-1.08,2.4-2.4v-3.31c0-1.32-1.08-2.4-2.4-2.4h-3.3c-1.32,0-2.4,1.08-2.4,2.4v3.31
		C76.87,75.69,77.95,76.76,79.27,76.76z M82.2,71.43v2.55h-2.55v-2.55H82.2z"></path>
      <path d="M91.97,78.05h-3.3c-1.32,0-2.4,1.08-2.4,2.4v12.7c0,1.32,1.08,2.4,2.4,2.4h3.3c1.32,0,2.4-1.08,2.4-2.4v-12.7
		C94.37,79.13,93.29,78.05,91.97,78.05z M89.04,92.77V80.83h2.56v11.95H89.04z"></path>
      <path d="M44.66,22.88c2.03,0,3.62-1.94,3.62-4.43s-1.59-4.43-3.62-4.43s-3.62,1.94-3.62,4.43S42.63,22.88,44.66,22.88z
		 M43.82,18.45c0-1.07,0.55-1.65,0.84-1.65c0.33,0,0.84,0.66,0.84,1.65c0,0.99-0.51,1.65-0.84,1.65
		C44.38,20.11,43.82,19.52,43.82,18.45z"></path>
      <path d="M59.65,57.24l0-0.1c0-0.77-0.62-1.39-1.39-1.39H29.38c-0.77,0-1.39,0.62-1.39,1.39c0,0.77,0.62,1.39,1.39,1.39
		h28.88C59,58.53,59.6,57.96,59.65,57.24z"></path>
      <path d="M50,37.39c8.21,0,14.88-6.68,14.88-14.88S58.21,7.62,50,7.62S35.11,14.3,35.11,22.51S41.79,37.39,50,37.39z
		 M37.89,22.51c0-6.68,5.43-12.11,12.11-12.11s12.11,5.43,12.11,12.11c0,6.68-5.43,12.11-12.11,12.11S37.89,29.18,37.89,22.51z"></path>
      <path d="M42.15,28.96c0,0.37,0.14,0.72,0.41,0.98c0.26,0.26,0.61,0.41,0.98,0.41s0.72-0.14,0.98-0.41l12.92-12.92
		c0.26-0.26,0.41-0.61,0.41-0.98c0-0.37-0.14-0.72-0.41-0.98c-0.26-0.26-0.61-0.41-0.98-0.41h0c-0.37,0-0.72,0.14-0.98,0.41
		L42.56,27.98C42.3,28.25,42.15,28.59,42.15,28.96z"></path>
      <path d="M29.38,51.39h29.04c0.73,0,1.33-0.57,1.38-1.29l0-0.1c0-0.77-0.62-1.39-1.39-1.39H29.38
		c-0.77,0-1.39,0.62-1.39,1.39S28.62,51.39,29.38,51.39z"></path>
      <path d="M69.88,66.32h22.09c1.32,0,2.4-1.08,2.4-2.4v-9.65c0-1.32-1.08-2.4-2.4-2.4H69.88c-1.32,0-2.4,1.08-2.4,2.4
		v9.65C67.48,65.25,68.55,66.32,69.88,66.32z M70.25,63.55v-8.9h21.34v8.9H70.25z"></path>
      <path d="M69.88,86.16h3.31c1.32,0,2.4-1.08,2.4-2.4v-3.31c0-1.32-1.08-2.4-2.4-2.4h-3.31c-1.32,0-2.4,1.08-2.4,2.4
		v3.31C67.48,85.08,68.55,86.16,69.88,86.16z M70.25,83.38v-2.55h2.55v2.55H70.25z"></path>
      <path d="M69.88,76.76h3.31c1.32,0,2.4-1.08,2.4-2.4v-3.31c0-1.32-1.08-2.4-2.4-2.4h-3.31c-1.32,0-2.4,1.08-2.4,2.4
		v3.31C67.48,75.69,68.55,76.76,69.88,76.76z M70.25,73.99v-2.55h2.55v2.55H70.25z"></path>
      <path d="M16.21,89.67c-0.05-1.98-1.68-3.58-3.68-3.58c-0.5,0-0.9-0.41-0.9-0.91s0.41-0.9,0.9-0.9
		c0.31,0,0.59,0.15,0.76,0.41c0.2,0.31,0.52,0.52,0.88,0.6c0.36,0.07,0.73,0,1.04-0.2c0.64-0.42,0.82-1.28,0.4-1.92
		c-0.42-0.63-1-1.11-1.69-1.39v-0.06c0-0.77-0.62-1.39-1.39-1.39c-0.77,0-1.39,0.62-1.39,1.39v0.06c-1.37,0.56-2.29,1.92-2.29,3.41
		c0,2.03,1.65,3.68,3.68,3.68c0.5,0,0.9,0.41,0.9,0.9c0,0.5-0.41,0.9-0.9,0.9c-0.31,0-0.59-0.15-0.76-0.41
		c-0.42-0.64-1.28-0.82-1.92-0.4c-0.64,0.42-0.82,1.28-0.4,1.92c0.41,0.63,1,1.11,1.69,1.39v0.06c0,0.77,0.62,1.39,1.39,1.39
		s1.39-0.62,1.39-1.39v-0.06c1.37-0.56,2.29-1.92,2.29-3.41L16.21,89.67L16.21,89.67z"></path>
      <path d="M55.34,22.13c-2.03,0-3.62,1.94-3.62,4.43s1.59,4.43,3.62,4.43c2.03,0,3.62-1.94,3.62-4.43
		S57.37,22.13,55.34,22.13z M56.18,26.56c0,1.07-0.55,1.65-0.84,1.65c-0.29,0-0.84-0.58-0.84-1.65c0-1.07,0.55-1.65,0.84-1.65
		C55.62,24.91,56.18,25.49,56.18,26.56z"></path>
      <path d="M69.88,95.55h3.31c1.32,0,2.4-1.08,2.4-2.4v-3.31c0-1.32-1.08-2.4-2.4-2.4h-3.31c-1.32,0-2.4,1.08-2.4,2.4
		v3.31C67.48,94.47,68.55,95.55,69.88,95.55z M70.25,92.77v-2.55h2.55v2.55H70.25z"></path>
    </g>
  </symbol>
  <symbol version="1.1" id="development" xmlns="http://www.w3.org/2000/svg" xmlns:xlink="http://www.w3.org/1999/xlink" x="0px" y="0px" xml:space="preserve" viewBox="0 0 100 100">
    <g id="surface1">
      <path d="M81.53,26.64h-2.7c-0.55,0-0.99,0.42-0.99,0.94v14.95c0,0.52,0.44,0.94,0.99,0.94h2.7
		c0.55,0,0.99-0.42,0.99-0.94V27.57C82.52,27.06,82.08,26.64,81.53,26.64z M80.54,41.59h-0.72V28.51h0.72V41.59z M74.79,26.64h-2.7
		c-0.55,0-0.99,0.42-0.99,0.94v14.95c0,0.52,0.44,0.94,0.99,0.94h2.7c0.55,0,0.99-0.42,0.99-0.94V27.57
		C75.78,27.06,75.34,26.64,74.79,26.64z M73.8,41.59h-0.72V28.51h0.72V41.59z M17.96,63.69V52.76c0-0.73,0.62-1.31,1.39-1.31
		c0.76,0,1.39,0.59,1.39,1.31v10.93c0,0.73-0.62,1.31-1.39,1.31C18.58,65.01,17.96,64.42,17.96,63.69z M20.8,71.26V82.2
		c0,0.73-0.62,1.31-1.39,1.31c-0.76,0-1.39-0.59-1.39-1.31V71.26c0-0.73,0.62-1.31,1.39-1.31C20.17,69.95,20.8,70.54,20.8,71.26z
		 M22.25,44.35V33.42c0-0.73,0.62-1.31,1.39-1.31c0.76,0,1.39,0.59,1.39,1.31v10.93c0,0.73-0.62,1.31-1.39,1.31
		C22.87,45.67,22.25,45.08,22.25,44.35z M26.61,44.56V33.64c0-0.73,0.62-1.31,1.39-1.31c0.77,0,1.39,0.59,1.39,1.31v10.93
		c0,0.73-0.62,1.31-1.39,1.31C27.23,45.88,26.61,45.29,26.61,44.56z M17.78,44.35V33.42c0-0.73,0.62-1.31,1.39-1.31
		c0.76,0,1.39,0.59,1.39,1.31v10.93c0,0.73-0.62,1.31-1.39,1.31C18.4,45.67,17.78,45.08,17.78,44.35z M45.24,62h3.8
		c0.76,0,1.39-0.59,1.39-1.31v-3.61c0-0.73-0.62-1.31-1.39-1.31h-3.8c-0.76,0-1.39,0.59-1.39,1.31v3.61
		C43.86,61.41,44.48,62,45.24,62z M46.63,58.39h1.03v0.98h-1.03V58.39z M52.84,62h3.8c0.76,0,1.39-0.59,1.39-1.31v-3.61
		c0-0.73-0.62-1.31-1.39-1.31h-3.8c-0.76,0-1.39,0.59-1.39,1.31v3.61C51.46,61.41,52.08,62,52.84,62z M54.23,58.39h1.03v0.98h-1.03
		V58.39z M49.23,48.11h-3.8c-0.77,0-1.39,0.59-1.39,1.31v3.61c0,0.73,0.62,1.31,1.39,1.31h3.8c0.77,0,1.39-0.59,1.39-1.31v-3.61
		C50.62,48.7,50,48.11,49.23,48.11z M47.85,51.72h-1.03v-0.98h1.03V51.72z M56.83,48.11h-3.8c-0.76,0-1.39,0.59-1.39,1.31v3.61
		c0,0.73,0.62,1.31,1.39,1.31h3.8c0.76,0,1.39-0.59,1.39-1.31v-3.61C58.22,48.7,57.6,48.11,56.83,48.11z M55.45,51.72h-1.03v-0.98
		h1.03V51.72z M49.11,63.64h-3.8c-0.76,0-1.39,0.59-1.39,1.31v3.61c0,0.73,0.62,1.31,1.39,1.31h3.8c0.76,0,1.39-0.59,1.39-1.31
		v-3.61C50.5,64.22,49.88,63.64,49.11,63.64z M47.73,67.24H46.7v-0.98h1.03V67.24z M56.71,63.64h-3.8c-0.76,0-1.39,0.59-1.39,1.31
		v3.61c0,0.73,0.62,1.31,1.39,1.31h3.8c0.76,0,1.39-0.59,1.39-1.31v-3.61C58.1,64.22,57.48,63.64,56.71,63.64z M55.33,67.24H54.3
		v-0.98h1.03V67.24z M45.37,47h3.8c0.76,0,1.39-0.59,1.39-1.31v-3.61c0-0.73-0.62-1.31-1.39-1.31h-3.8c-0.76,0-1.39,0.59-1.39,1.31
		v3.61C43.98,46.41,44.6,47,45.37,47z M46.75,43.39h1.03v0.98h-1.03V43.39z M52.97,47h3.8c0.77,0,1.39-0.59,1.39-1.31v-3.61
		c0-0.73-0.62-1.31-1.39-1.31h-3.8c-0.77,0-1.39,0.59-1.39,1.31v3.61C51.58,46.41,52.2,47,52.97,47z M54.36,43.39h1.03v0.98h-1.03
		V43.39z M45.56,39.35h3.8c0.76,0,1.39-0.59,1.39-1.31v-3.61c0-0.73-0.62-1.31-1.39-1.31h-3.8c-0.76,0-1.39,0.59-1.39,1.31v3.61
		C44.17,38.76,44.79,39.35,45.56,39.35z M46.94,35.74h1.03v0.98h-1.03V35.74z M53.16,39.35h3.8c0.76,0,1.39-0.59,1.39-1.31v-3.61
		c0-0.73-0.62-1.31-1.39-1.31h-3.8c-0.76,0-1.39,0.59-1.39,1.31v3.61C51.77,38.76,52.39,39.35,53.16,39.35z M54.54,35.74h1.03v0.98
		h-1.03V35.74z M26.19,68.47c0-0.73,0.62-1.32,1.38-1.32l6.37-0.01h0c0.76,0,1.38,0.59,1.39,1.31c0,0.73-0.62,1.32-1.38,1.32
		l-6.37,0.01h0C26.81,69.79,26.19,69.2,26.19,68.47z M26.19,72.72c0-0.73,0.62-1.32,1.38-1.32l6.37-0.01h0
		c0.76,0,1.38,0.59,1.39,1.31c0,0.73-0.62,1.32-1.38,1.32l-6.37,0.01h0C26.81,74.03,26.19,73.44,26.19,72.72z M68.17,68.37h3.8
		c0.77,0,1.39-0.59,1.39-1.31v-2.91c0-0.73-0.62-1.31-1.39-1.31h-3.8c-0.77,0-1.39,0.59-1.39,1.31v2.91
		C66.78,67.78,67.4,68.37,68.17,68.37z M69.55,65.46h1.03v0.28h-1.03V65.46z M75.77,68.37h3.8c0.76,0,1.39-0.59,1.39-1.31v-2.91
		c0-0.73-0.62-1.31-1.39-1.31h-3.8c-0.76,0-1.39,0.59-1.39,1.31v2.91C74.38,67.78,75,68.37,75.77,68.37z M77.15,65.46h1.03v0.28
		h-1.03V65.46z M72.16,56.65h-3.8c-0.76,0-1.39,0.59-1.39,1.31v2.91c0,0.73,0.62,1.31,1.39,1.31h3.8c0.76,0,1.39-0.59,1.39-1.31
		v-2.91C73.54,57.24,72.92,56.65,72.16,56.65z M70.77,59.56h-1.03v-0.28h1.03V59.56z M79.76,56.65h-3.8c-0.77,0-1.39,0.59-1.39,1.31
		v2.91c0,0.73,0.62,1.31,1.39,1.31h3.8c0.77,0,1.39-0.59,1.39-1.31v-2.91C81.14,57.24,80.52,56.65,79.76,56.65z M78.37,59.56h-1.03
		v-0.28h1.03V59.56z M72.04,69.19h-3.8c-0.76,0-1.39,0.59-1.39,1.31v2.91c0,0.73,0.62,1.31,1.39,1.31h3.8
		c0.76,0,1.39-0.59,1.39-1.31v-2.91C73.42,69.78,72.8,69.19,72.04,69.19z M70.65,72.1h-1.03v-0.28h1.03V72.1z M79.64,69.19h-3.8
		c-0.76,0-1.39,0.59-1.39,1.31v2.91c0,0.73,0.62,1.31,1.39,1.31h3.8c0.76,0,1.39-0.59,1.39-1.31v-2.91
		C81.02,69.78,80.4,69.19,79.64,69.19z M78.25,72.1h-1.03v-0.28h1.03V72.1z M26.37,60.08c0-0.73,0.62-1.32,1.38-1.32l6.37-0.01h0
		c0.77,0,1.38,0.59,1.39,1.31c0,0.73-0.62,1.32-1.38,1.32l-6.37,0.01h0C26.99,61.39,26.37,60.8,26.37,60.08z M35.53,64.3
		c0,0.73-0.62,1.32-1.38,1.32l-6.37,0.01h0c-0.76,0-1.38-0.59-1.39-1.31c0-0.73,0.62-1.32,1.38-1.32l6.37-0.01h0
		C34.91,62.99,35.53,63.58,35.53,64.3z M99.53,79.08c0.23-0.57,0.36-1.17,0.36-1.78c0-2.69-2.31-4.88-5.14-4.88
		c-2.84,0-5.14,2.19-5.14,4.88c0,0.61,0.13,1.22,0.36,1.78c-0.23,0.57-0.36,1.17-0.36,1.78c0,0.61,0.13,1.22,0.36,1.78
		c-0.23,0.57-0.36,1.17-0.36,1.78c0,2.23,1.6,4.1,3.76,4.68v3.43h-4.49V6.14c0-0.73-0.62-1.31-1.39-1.31c-0.5,0-0.92,0.27-1.17,0.65
		L66.83,18.16c-0.62,0.13-1.09,0.63-1.09,1.26v30.84h-1.46V29.11c0-0.73-0.62-1.31-1.39-1.31H38.63c-0.77,0-1.39,0.59-1.39,1.31
		v21.14H34.9V28.98c0-0.06-0.03-0.11-0.04-0.17c-0.01-0.09-0.02-0.18-0.06-0.27c-0.03-0.08-0.08-0.15-0.12-0.22
		c-0.05-0.07-0.09-0.14-0.15-0.21c-0.06-0.07-0.14-0.12-0.22-0.18c-0.05-0.03-0.09-0.08-0.14-0.11L13.83,17.32
		c-0.02-0.01-0.04-0.01-0.06-0.02c-0.08-0.04-0.17-0.06-0.26-0.08c-0.09-0.02-0.18-0.05-0.27-0.05c-0.02,0-0.04-0.01-0.07-0.01
		c-0.06,0-0.12,0.03-0.18,0.03c-0.1,0.01-0.19,0.02-0.28,0.05c-0.08,0.03-0.16,0.07-0.23,0.11c-0.08,0.04-0.15,0.08-0.22,0.14
		c-0.07,0.06-0.13,0.13-0.18,0.21c-0.04,0.05-0.09,0.08-0.12,0.13c-0.01,0.02-0.01,0.04-0.02,0.06c-0.04,0.08-0.06,0.16-0.08,0.25
		c-0.02,0.09-0.05,0.17-0.05,0.26c0,0.02-0.01,0.04-0.01,0.06v74.08H7.33v-3.43c2.16-0.58,3.76-2.45,3.76-4.68
		c0-0.61-0.13-1.22-0.36-1.78c0.23-0.57,0.36-1.17,0.36-1.78c0-0.61-0.13-1.22-0.36-1.78c0.23-0.57,0.36-1.17,0.36-1.78
		c0-2.69-2.31-4.88-5.14-4.88S0.8,74.61,0.8,77.31c0,0.61,0.13,1.22,0.36,1.78c-0.23,0.57-0.36,1.17-0.36,1.78
		c0,0.61,0.13,1.22,0.36,1.78c-0.23,0.57-0.36,1.17-0.36,1.78c0,2.23,1.6,4.1,3.76,4.68v3.43H1.49c-0.76,0-1.39,0.59-1.39,1.31
		c0,0.73,0.62,1.31,1.39,1.31H97.3c0.76,0,1.39-0.59,1.39-1.31c0-0.73-0.62-1.31-1.39-1.31h-1.16v-3.43
		c2.16-0.58,3.76-2.45,3.76-4.68c0-0.61-0.13-1.22-0.36-1.78c0.23-0.57,0.36-1.17,0.36-1.78C99.9,80.26,99.77,79.65,99.53,79.08
		L99.53,79.08z M3.57,84.43c0-0.4,0.11-0.78,0.32-1.12c0.03-0.05,0.03-0.1,0.06-0.15c0.04-0.09,0.07-0.17,0.09-0.26
		c0.02-0.08,0.02-0.16,0.02-0.25c0-0.08,0-0.16-0.02-0.25c-0.02-0.09-0.05-0.17-0.09-0.26c-0.02-0.05-0.02-0.11-0.06-0.15
		c-0.21-0.34-0.32-0.73-0.32-1.13c0-0.4,0.11-0.78,0.32-1.12c0.03-0.05,0.03-0.1,0.06-0.15c0.04-0.09,0.07-0.17,0.09-0.26
		c0.02-0.08,0.02-0.16,0.02-0.25c0-0.08,0-0.16-0.02-0.25c-0.02-0.09-0.05-0.17-0.09-0.26c-0.02-0.05-0.02-0.11-0.06-0.15
		c-0.21-0.34-0.32-0.73-0.32-1.13c0-1.24,1.06-2.25,2.37-2.25c1.31,0,2.37,1.01,2.37,2.25c0,0.4-0.11,0.78-0.32,1.12
		c-0.03,0.05-0.03,0.1-0.06,0.15c-0.04,0.08-0.07,0.17-0.09,0.26C7.83,78.92,7.83,79,7.83,79.08c0,0.08,0,0.16,0.02,0.25
		c0.02,0.09,0.05,0.17,0.09,0.26c0.02,0.05,0.02,0.11,0.06,0.15c0.21,0.34,0.32,0.73,0.32,1.12c0,0.39-0.11,0.78-0.32,1.12
		c-0.03,0.05-0.03,0.1-0.06,0.15c-0.04,0.08-0.07,0.17-0.09,0.26c-0.02,0.08-0.02,0.16-0.02,0.25s0,0.16,0.02,0.25
		c0.02,0.09,0.05,0.17,0.09,0.26C7.96,83.2,7.96,83.25,8,83.3c0.21,0.34,0.32,0.73,0.32,1.12c0,1.24-1.06,2.25-2.37,2.25
		C4.63,86.68,3.57,85.67,3.57,84.43L3.57,84.43z M52.44,92.54h-3.36V78.07h3.36V92.54z M61.51,30.42v62.12h-6.3V76.75
		c0-0.73-0.62-1.31-1.39-1.31H47.7c-0.76,0-1.39,0.59-1.39,1.31v15.79h-6.3V30.42H61.51z M14.55,20.68l17.58,9.08v20.49h-8.79
		c-0.76,0-1.39,0.59-1.39,1.31v40.98h-7.4L14.55,20.68L14.55,20.68z M24.72,52.88h12.52v39.67H34.9V82.9c0-0.36-0.15-0.69-0.41-0.93
		c-0.25-0.24-0.6-0.38-0.98-0.38h-5.32c-0.76,0-1.39,0.59-1.39,1.31v9.64h-2.08V52.88z M29.58,92.54v-8.32h2.55v8.32H29.58z
		 M72.01,92.54v-8.32h3.36v8.32H72.01z M78.14,92.54V82.9c0-0.73-0.62-1.31-1.39-1.31h-6.13c-0.76,0-1.39,0.59-1.39,1.31v9.64h-4.95
		V52.88h18.76v39.67H78.14z M85.82,92.54V51.56c0-0.73-0.62-1.31-1.39-1.31H68.52v-30L86.1,8.8v83.74H85.82z M94.75,86.68
		c-1.31,0-2.37-1.01-2.37-2.25c0-0.4,0.11-0.78,0.32-1.12c0.03-0.05,0.03-0.1,0.06-0.15c0.04-0.09,0.07-0.17,0.09-0.26
		c0.02-0.08,0.02-0.16,0.02-0.25c0-0.08,0-0.16-0.02-0.25c-0.02-0.09-0.05-0.17-0.09-0.26c-0.02-0.05-0.02-0.11-0.06-0.15
		c-0.21-0.34-0.32-0.73-0.32-1.12c0-0.4,0.11-0.78,0.32-1.12c0.03-0.05,0.03-0.1,0.06-0.15c0.04-0.09,0.07-0.17,0.09-0.26
		c0.02-0.08,0.02-0.16,0.02-0.25c0-0.08,0-0.16-0.02-0.25c-0.02-0.09-0.05-0.17-0.09-0.26c-0.02-0.05-0.02-0.11-0.06-0.15
		c-0.21-0.34-0.32-0.73-0.32-1.12c0-1.24,1.06-2.25,2.37-2.25c1.31,0,2.37,1.01,2.37,2.25c0,0.4-0.11,0.78-0.32,1.12
		c-0.03,0.05-0.03,0.1-0.06,0.15c-0.04,0.08-0.07,0.17-0.09,0.26c-0.02,0.08-0.02,0.16-0.02,0.25c0,0.08,0,0.16,0.02,0.25
		c0.02,0.09,0.05,0.17,0.09,0.26c0.02,0.05,0.02,0.11,0.06,0.15c0.21,0.34,0.32,0.73,0.32,1.12c0,0.4-0.11,0.78-0.32,1.12
		c-0.03,0.05-0.03,0.1-0.06,0.15c-0.04,0.08-0.07,0.17-0.09,0.26c-0.02,0.08-0.02,0.16-0.02,0.25c0,0.08,0,0.16,0.02,0.25
		c0.02,0.09,0.05,0.17,0.09,0.26c0.02,0.05,0.02,0.11,0.06,0.15c0.21,0.34,0.32,0.73,0.32,1.12C97.12,85.67,96.06,86.68,94.75,86.68
		z"></path>
    </g>
  </symbol>
  <symbol version="1.1" id="corporative" xmlns="http://www.w3.org/2000/svg" xmlns:xlink="http://www.w3.org/1999/xlink" x="0px" y="0px" xml:space="preserve" viewBox="0 0 100 100">
    <g>
      <path class="st0" d="M79.6,32.47c-5.55,0-10.06,4.51-10.06,10.06s4.51,10.06,10.06,10.06s10.06-4.51,10.06-10.06
		S85.15,32.47,79.6,32.47z M79.6,49.79c-4,0-7.25-3.25-7.25-7.25s3.25-7.25,7.25-7.25s7.25,3.25,7.25,7.25S83.6,49.79,79.6,49.79z"
		/>
	<path class="st0" d="M92.13,91.41l0.63-0.11c6.39-1.16,6.39-4.85,6.39-12.92v-8.53c0-0.35-0.07-3.51-2.44-6.73l-0.11-0.15
		c-4.09-5.41-11.5-6.54-17-6.54c-0.83,0-1.66,0.02-2.47,0.07c-0.37,0.02-0.72,0.19-0.96,0.47c-0.25,0.28-0.37,0.64-0.35,1.02
		c0.05,0.77,0.71,1.36,1.49,1.31c0.73-0.05,1.5-0.07,2.29-0.07c6.84,0,11.9,1.82,14.62,5.25c2.06,2.61,2.12,5.34,2.12,5.36v8.53
		c0,4.11,0,6.82-0.73,8.29c-0.39,0.8-1.07,1.29-2.27,1.63l-1.1,0.31l0.01-1.14c0.02-1.3,0.02-2.76,0.02-4.41v-8.74
		c0-0.78-0.63-1.41-1.41-1.41s-1.41,0.63-1.41,1.41v8.74c0,6.77,0,10.5-1.12,11.95c-0.99,1.28-3.75,1.28-8.75,1.28
		c-2.23,0-4,0-5.39-0.11c-0.04,0-0.08,0-0.12,0c-0.33,0-0.65,0.12-0.91,0.33c-0.29,0.24-0.46,0.58-0.49,0.96s0.09,0.74,0.33,1.02
		c0.24,0.29,0.58,0.46,0.96,0.49c1.5,0.12,3.31,0.12,5.61,0.12c5.9,0,9.15,0,10.98-2.38c0.82-1.06,1.26-2.46,1.48-4.67L92.13,91.41z
		"/>
	<path class="st0" d="M20.4,32.47c-5.55,0-10.06,4.51-10.06,10.06s4.51,10.06,10.06,10.06s10.06-4.51,10.06-10.06
		S25.95,32.47,20.4,32.47z M20.4,49.79c-4,0-7.25-3.25-7.25-7.25s3.25-7.25,7.25-7.25s7.25,3.25,7.25,7.25S24.4,49.79,20.4,49.79z"
		/>
	<path class="st0" d="M26.01,98.98c0.77-0.06,1.35-0.74,1.29-1.51c-0.06-0.77-0.75-1.34-1.52-1.29l-0.39,0.03l0,0
		c-1.32,0.08-2.96,0.08-4.99,0.08c-5.01,0-7.77,0-8.75-1.28c-1.12-1.45-1.12-5.18-1.12-11.95v-8.74c0-0.78-0.63-1.41-1.4-1.41
		c-0.78,0-1.41,0.63-1.41,1.41v8.74c0,1.65,0,3.1,0.02,4.41l0.01,1.14l-1.1-0.31c-1.5-0.42-1.99-1.06-2.27-1.63
		c-0.73-1.48-0.73-4.19-0.73-8.3v-8.52c0-0.03,0.02-2.73,2.12-5.38c2.72-3.43,7.78-5.25,14.62-5.25c0.79,0,1.56,0.02,2.29,0.07
		c0.77,0.05,1.44-0.54,1.49-1.31c0.02-0.37-0.1-0.74-0.35-1.02c-0.25-0.28-0.59-0.45-0.97-0.47c-0.78-0.05-1.61-0.07-2.47-0.07
		c-5.49,0-12.9,1.13-17,6.54c-2.48,3.28-2.55,6.52-2.55,6.88v8.53c0,8.08,0,11.76,6.39,12.92l0.63,0.11l0.06,0.64
		c0.22,2.21,0.67,3.61,1.48,4.67c1.83,2.38,5.08,2.38,10.98,2.38C22.7,99.1,24.52,99.1,26.01,98.98z"/>
	<path class="st0" d="M50.42,26.83c-6.04,0-10.95,4.91-10.95,10.95s4.91,10.95,10.95,10.95s10.95-4.91,10.95-10.95
		S56.46,26.83,50.42,26.83z M50.42,45.91c-4.49,0-8.14-3.65-8.14-8.14s3.65-8.14,8.14-8.14s8.14,3.65,8.14,8.14
		S54.91,45.91,50.42,45.91z"/>
	<path class="st0" d="M62.41,97.44c0.9-1.17,1.38-2.73,1.62-5.24l0.06-0.65l0.65-0.11c3.14-0.52,4.98-1.66,5.99-3.7
		c1.1-2.25,1.1-5.33,1.1-10.45v-9.41c0-0.39-0.08-3.92-2.78-7.5c-4.48-5.91-12.6-7.15-18.62-7.15c-10.92,0-16.15,3.89-18.62,7.15
		c-2.71,3.58-2.78,7.11-2.78,7.5v9.41c0,5.12,0,8.21,1.1,10.45c1,2.04,2.85,3.18,5.99,3.7l0.65,0.11l0.06,0.65
		c0.24,2.5,0.72,4.07,1.62,5.24C40.41,100,43.96,100,50.42,100S60.44,100,62.41,97.44z M40.66,95.72
		c-1.26-1.64-1.26-5.77-1.26-13.26v-9.64c0-0.77-0.63-1.4-1.41-1.4s-1.41,0.63-1.41,1.4v9.64c0,1.94,0,3.65,0.02,5.16l0.02,1.1
		l-1.07-0.26c-1.96-0.47-2.56-1.22-2.92-1.96c-0.81-1.65-0.81-4.66-0.81-9.21v-9.4c0.01-0.5,0.36-11.86,18.6-11.86
		c18.26,0,18.59,11.35,18.6,11.83v9.42c0,4.55,0,7.55-0.82,9.21c-0.36,0.74-0.96,1.48-2.92,1.96l-1.07,0.26l0.02-1.1
		c0.02-1.51,0.02-3.22,0.02-5.16v-9.64c0-0.77-0.63-1.4-1.41-1.4s-1.41,0.63-1.41,1.4v9.64c0,7.49,0,11.62-1.26,13.26
		c-1.13,1.47-4.02,1.47-9.76,1.47C44.67,97.19,41.79,97.19,40.66,95.72z"/>
    </g>
  </symbol>
  <symbol version="1.1" id="it" xmlns="http://www.w3.org/2000/svg" xmlns:xlink="http://www.w3.org/1999/xlink" x="0px" y="0px" xml:space="preserve" viewBox="0 0 100 100">
    <g>
      <path d="M8.06,99.95h83.87c4.33,0,7.85-3.52,7.85-7.85v-7.85H69.57v2.8h27.42v5.05c0,2.79-2.27,5.05-5.05,5.05H8.06
		c-2.79,0-5.05-2.27-5.05-5.05v-5.05h27.42v-2.8H0.21v7.85C0.21,96.43,3.74,99.95,8.06,99.95z"></path>
      <path d="M38.71,93.5h22.58c2.55,0,4.63-2.07,4.63-4.62v-4.63H34.08v4.63C34.08,91.42,36.16,93.5,38.71,93.5z
		 M36.88,87.05h26.23v1.83c0,1.01-0.82,1.83-1.83,1.83H38.71c-1.01,0-1.83-0.82-1.83-1.83V87.05z"></path>
      <path d="M11.29,25.76h36.88v-2.8H11.29c-4.33,0-7.85,3.52-7.85,7.85v49.79h2.8V30.81C6.24,28.02,8.5,25.76,11.29,25.76
		z"></path>
      <rect x="93.76" y="50.38" width="2.8" height="30.22"></rect>
      <path d="M48.17,29.41H12.9c-1.66,0-3.01,1.35-3.01,3.01v48.17h2.8V32.21h35.48V29.41z"></path>
      <rect x="87.31" y="55.21" width="2.8" height="25.38"></rect>
      <path d="M76.58,0.61l-0.78-0.52l-0.78,0.52c-6.1,4.07-13.2,6.22-20.53,6.22h-2.67v23.98
		c0,13.22,10.76,23.98,23.98,23.98s23.98-10.76,23.98-23.98V6.83h-2.67C89.78,6.83,82.68,4.68,76.58,0.61z M96.99,30.81
		c0,11.68-9.5,21.18-21.18,21.18s-21.18-9.5-21.18-21.18V9.63l0.21,0c7.39-0.06,14.61-2.18,20.86-6.11l0.11-0.07l0.11,0.07
		c6.25,3.93,13.46,6.05,20.86,6.11l0.21,0V30.81z"></path>
      <path d="M76.47,8.06l-0.66-0.36l-0.67,0.36c-4.87,2.63-10.13,4.29-15.62,4.92l-1.24,0.14v17.68
		c0,9.67,7.86,17.53,17.53,17.53s17.53-7.86,17.53-17.53V13.13l-1.24-0.14C86.6,12.35,81.34,10.7,76.47,8.06z M90.54,30.81
		c0,8.12-6.61,14.73-14.73,14.73c-8.12,0-14.73-6.61-14.73-14.73V15.61l0.18-0.03c5.05-0.74,9.91-2.3,14.45-4.65l0.1-0.05l0.1,0.05
		c4.54,2.35,9.4,3.91,14.45,4.65l0.18,0.03V30.81z"></path>
      <polygon points="84.22,18.89 73.88,33.66 68.75,29.82 67.07,32.06 74.51,37.64 86.51,20.49 	"></polygon>
      <path d="M33.87,39.08c-6.11,0-11.08,4.97-11.08,11.08v5.29l-0.14,0.05c-1.85,0.66-3.08,2.4-3.08,4.34v16.13
		c0,2.55,2.08,4.62,4.63,4.62h19.36c2.55,0,4.62-2.07,4.62-4.62V59.84c0-1.94-1.24-3.68-3.08-4.34l-0.14-0.05v-5.29
		C44.95,44.05,39.98,39.08,33.87,39.08z M25.59,50.16c0-4.56,3.71-8.28,8.28-8.28s8.28,3.71,8.28,8.28v5.05H25.59V50.16z
		 M45.37,59.84v16.13c0,1.01-0.82,1.83-1.83,1.83H24.19c-1.01,0-1.83-0.82-1.83-1.83V59.84c0-1.01,0.82-1.83,1.83-1.83h19.36
		C44.55,58.01,45.37,58.83,45.37,59.84z"></path>
      <path d="M38.5,66.29c0-2.55-2.08-4.63-4.63-4.63s-4.63,2.08-4.63,4.63c0,1.94,1.24,3.68,3.08,4.34l0.14,0.05v3.46h2.8
		v-3.46l0.14-0.05C37.26,69.98,38.5,68.23,38.5,66.29z M33.87,68.12c-1.01,0-1.83-0.82-1.83-1.83s0.82-1.83,1.83-1.83
		c1.01,0,1.83,0.82,1.83,1.83S34.88,68.12,33.87,68.12z"></path>
      <rect x="13.12" y="90.7" width="2.8" height="2.8"></rect>
      <rect x="19.57" y="90.7" width="2.8" height="2.8"></rect>
      <rect x="26.02" y="90.7" width="2.8" height="2.8"></rect>
    </g>
  </symbol>
   <symbol version="1.1" id="email-svgrepo-com" xmlns="http://www.w3.org/2000/svg" xmlns:xlink="http://www.w3.org/1999/xlink" x="0px" y="0px" xml:space="preserve" viewBox="0 0 800 800">
    <path d="M533.3,733.3H400c-45,0-88.6-8.8-129.8-26.2c-39.7-16.8-75.3-40.8-105.9-71.4c-30.6-30.6-54.6-66.2-71.4-105.9
	C75.5,488.6,66.7,445,66.7,400c0-45,8.8-88.6,26.2-129.8c16.8-39.7,40.8-75.3,71.4-105.9c30.6-30.6,66.2-54.6,105.9-71.4
	C311.4,75.5,355,66.7,400,66.7c45,0,88.6,8.8,129.8,26.2c39.7,16.8,75.3,40.8,105.9,71.4c30.6,30.6,54.6,66.2,71.4,105.9
	c17.4,41.1,26.2,84.8,26.2,129.8v50c0,64.3-52.3,116.7-116.7,116.7c-40.1,0-75.5-20.3-96.5-51.2c-30.3,31.6-73,51.2-120.1,51.2
	c-91.9,0-166.7-74.8-166.7-166.7c0-91.9,74.8-166.7,166.7-166.7c91.9,0,166.7,74.8,166.7,166.7v50c0,27.6,22.4,50,50,50
	c27.6,0,50-22.4,50-50v-50c0-147-119.6-266.7-266.7-266.7S133.3,253,133.3,400S253,666.7,400,666.7h133.3
	c18.4,0,33.3,14.9,33.3,33.3S551.7,733.3,533.3,733.3z M400,300c-55.1,0-100,44.9-100,100c0,55.1,44.9,100,100,100
	c55.1,0,100-44.9,100-100C500,344.9,455.1,300,400,300z"></path>
  </symbol>
  <symbol version="1.1" id="telephone-typewriter-svgrepo-com" xmlns="http://www.w3.org/2000/svg" xmlns:xlink="http://www.w3.org/1999/xlink" x="0px" y="0px" xml:space="preserve" viewBox="0 0 800 800">
    <path d="M42.5,131.4c57.9-35.1,185.5-98,357.5-98s299.6,62.9,357.5,98c33.3,20.2,47,58.4,41.2,93.7l-15.3,92.6
	c-8.9,54.2-60,90.5-113.4,80.7l-82.2-15.1c-34.9-6.4-58.2-40-52.4-75.4l7.7-46.5c-19.6-11.6-64.1-31.1-143.1-31.1
	c-79,0-123.5,19.5-143.1,31.1l7.7,46.5c5.8,35.4-17.5,69-52.4,75.4L130,398.4c-53.4,9.8-104.5-26.5-113.4-80.7L1.3,225.1
	C-4.5,189.7,9.2,151.6,42.5,131.4z M400,99c-156.4,0-272.4,57.3-324.2,88.7c-7.6,4.6-12.5,14.4-10.5,26.6l15.3,92.6
	c3,18.1,20,30.2,37.8,26.9l82.2-15.1l-8.2-49.9c-3.4-20.4,2.9-45.4,24.9-59.8c27.4-17.9,84.8-44.3,182.7-44.3
	c97.9,0,155.3,26.4,182.7,44.3c22,14.4,28.3,39.4,24.9,59.8l-8.2,49.9l82.2,15.1c17.8,3.3,34.8-8.8,37.8-26.9l15.3-92.6
	c2-12.2-3-22-10.5-26.6C672.4,156.3,556.4,99,400,99z"></path>
    <path d="M133.3,733.3c0-18.4,14.9-33.3,33.3-33.3h466.7c18.4,0,33.3,14.9,33.3,33.3c0,18.4-14.9,33.3-33.3,33.3H166.7
	C148.3,766.7,133.3,751.7,133.3,733.3z"></path>
    <path d="M66.7,600c-18.4,0-33.3,14.9-33.3,33.3c0,18.4,14.9,33.3,33.3,33.3h66.7c18.4,0,33.3-14.9,33.3-33.3
	c0-18.4-14.9-33.3-33.3-33.3H66.7z"></path>
    <path d="M633.3,633.3c0-18.4,14.9-33.3,33.3-33.3h66.7c18.4,0,33.3,14.9,33.3,33.3c0,18.4-14.9,33.3-33.3,33.3h-66.7
	C648.3,666.7,633.3,651.7,633.3,633.3z"></path>
    <path d="M566.7,500c-18.4,0-33.3,14.9-33.3,33.3c0,18.4,14.9,33.3,33.3,33.3h66.7c18.4,0,33.3-14.9,33.3-33.3
	c0-18.4-14.9-33.3-33.3-33.3H566.7z"></path>
    <path d="M233.3,633.3c0-18.4,14.9-33.3,33.3-33.3h66.7c18.4,0,33.3,14.9,33.3,33.3c0,18.4-14.9,33.3-33.3,33.3h-66.7
	C248.3,666.7,233.3,651.7,233.3,633.3z"></path>
    <path d="M166.7,500c-18.4,0-33.3,14.9-33.3,33.3c0,18.4,14.9,33.3,33.3,33.3h66.7c18.4,0,33.3-14.9,33.3-33.3
	c0-18.4-14.9-33.3-33.3-33.3H166.7z"></path>
    <path d="M433.3,633.3c0-18.4,14.9-33.3,33.3-33.3h66.7c18.4,0,33.3,14.9,33.3,33.3c0,18.4-14.9,33.3-33.3,33.3h-66.7
	C448.3,666.7,433.3,651.7,433.3,633.3z"></path>
    <path d="M366.7,500c-18.4,0-33.3,14.9-33.3,33.3c0,18.4,14.9,33.3,33.3,33.3h66.7c18.4,0,33.3-14.9,33.3-33.3
	c0-18.4-14.9-33.3-33.3-33.3H366.7z"></path>
  </symbol>

</svg>