<?xml version="1.0" encoding="utf-8"?>
<!-- Generator: Adobe Illustrator 27.3.1, SVG Export Plug-In . SVG Version: 6.00 Build 0)  -->
<svg version="1.1" id="Шар_1" xmlns="http://www.w3.org/2000/svg" xmlns:xlink="http://www.w3.org/1999/xlink" x="0px" y="0px"
	 viewBox="0 0 100 100" style="enable-background:new 0 0 100 100;" xml:space="preserve">
<style type="text/css">
	.st0{fill:#010101;}
</style>
<g>
	<path class="st0" d="M79.6,32.47c-5.55,0-10.06,4.51-10.06,10.06s4.51,10.06,10.06,10.06s10.06-4.51,10.06-10.06
		S85.15,32.47,79.6,32.47z M79.6,49.79c-4,0-7.25-3.25-7.25-7.25s3.25-7.25,7.25-7.25s7.25,3.25,7.25,7.25S83.6,49.79,79.6,49.79z"
		/>
	<path class="st0" d="M92.13,91.41l0.63-0.11c6.39-1.16,6.39-4.85,6.39-12.92v-8.53c0-0.35-0.07-3.51-2.44-6.73l-0.11-0.15
		c-4.09-5.41-11.5-6.54-17-6.54c-0.83,0-1.66,0.02-2.47,0.07c-0.37,0.02-0.72,0.19-0.96,0.47c-0.25,0.28-0.37,0.64-0.35,1.02
		c0.05,0.77,0.71,1.36,1.49,1.31c0.73-0.05,1.5-0.07,2.29-0.07c6.84,0,11.9,1.82,14.62,5.25c2.06,2.61,2.12,5.34,2.12,5.36v8.53
		c0,4.11,0,6.82-0.73,8.29c-0.39,0.8-1.07,1.29-2.27,1.63l-1.1,0.31l0.01-1.14c0.02-1.3,0.02-2.76,0.02-4.41v-8.74
		c0-0.78-0.63-1.41-1.41-1.41s-1.41,0.63-1.41,1.41v8.74c0,6.77,0,10.5-1.12,11.95c-0.99,1.28-3.75,1.28-8.75,1.28
		c-2.23,0-4,0-5.39-0.11c-0.04,0-0.08,0-0.12,0c-0.33,0-0.65,0.12-0.91,0.33c-0.29,0.24-0.46,0.58-0.49,0.96s0.09,0.74,0.33,1.02
		c0.24,0.29,0.58,0.46,0.96,0.49c1.5,0.12,3.31,0.12,5.61,0.12c5.9,0,9.15,0,10.98-2.38c0.82-1.06,1.26-2.46,1.48-4.67L92.13,91.41z
		"/>
	<path class="st0" d="M20.4,32.47c-5.55,0-10.06,4.51-10.06,10.06s4.51,10.06,10.06,10.06s10.06-4.51,10.06-10.06
		S25.95,32.47,20.4,32.47z M20.4,49.79c-4,0-7.25-3.25-7.25-7.25s3.25-7.25,7.25-7.25s7.25,3.25,7.25,7.25S24.4,49.79,20.4,49.79z"
		/>
	<path class="st0" d="M26.01,98.98c0.77-0.06,1.35-0.74,1.29-1.51c-0.06-0.77-0.75-1.34-1.52-1.29l-0.39,0.03l0,0
		c-1.32,0.08-2.96,0.08-4.99,0.08c-5.01,0-7.77,0-8.75-1.28c-1.12-1.45-1.12-5.18-1.12-11.95v-8.74c0-0.78-0.63-1.41-1.4-1.41
		c-0.78,0-1.41,0.63-1.41,1.41v8.74c0,1.65,0,3.1,0.02,4.41l0.01,1.14l-1.1-0.31c-1.5-0.42-1.99-1.06-2.27-1.63
		c-0.73-1.48-0.73-4.19-0.73-8.3v-8.52c0-0.03,0.02-2.73,2.12-5.38c2.72-3.43,7.78-5.25,14.62-5.25c0.79,0,1.56,0.02,2.29,0.07
		c0.77,0.05,1.44-0.54,1.49-1.31c0.02-0.37-0.1-0.74-0.35-1.02c-0.25-0.28-0.59-0.45-0.97-0.47c-0.78-0.05-1.61-0.07-2.47-0.07
		c-5.49,0-12.9,1.13-17,6.54c-2.48,3.28-2.55,6.52-2.55,6.88v8.53c0,8.08,0,11.76,6.39,12.92l0.63,0.11l0.06,0.64
		c0.22,2.21,0.67,3.61,1.48,4.67c1.83,2.38,5.08,2.38,10.98,2.38C22.7,99.1,24.52,99.1,26.01,98.98z"/>
	<path class="st0" d="M50.42,26.83c-6.04,0-10.95,4.91-10.95,10.95s4.91,10.95,10.95,10.95s10.95-4.91,10.95-10.95
		S56.46,26.83,50.42,26.83z M50.42,45.91c-4.49,0-8.14-3.65-8.14-8.14s3.65-8.14,8.14-8.14s8.14,3.65,8.14,8.14
		S54.91,45.91,50.42,45.91z"/>
	<path class="st0" d="M62.41,97.44c0.9-1.17,1.38-2.73,1.62-5.24l0.06-0.65l0.65-0.11c3.14-0.52,4.98-1.66,5.99-3.7
		c1.1-2.25,1.1-5.33,1.1-10.45v-9.41c0-0.39-0.08-3.92-2.78-7.5c-4.48-5.91-12.6-7.15-18.62-7.15c-10.92,0-16.15,3.89-18.62,7.15
		c-2.71,3.58-2.78,7.11-2.78,7.5v9.41c0,5.12,0,8.21,1.1,10.45c1,2.04,2.85,3.18,5.99,3.7l0.65,0.11l0.06,0.65
		c0.24,2.5,0.72,4.07,1.62,5.24C40.41,100,43.96,100,50.42,100S60.44,100,62.41,97.44z M40.66,95.72
		c-1.26-1.64-1.26-5.77-1.26-13.26v-9.64c0-0.77-0.63-1.4-1.41-1.4s-1.41,0.63-1.41,1.4v9.64c0,1.94,0,3.65,0.02,5.16l0.02,1.1
		l-1.07-0.26c-1.96-0.47-2.56-1.22-2.92-1.96c-0.81-1.65-0.81-4.66-0.81-9.21v-9.4c0.01-0.5,0.36-11.86,18.6-11.86
		c18.26,0,18.59,11.35,18.6,11.83v9.42c0,4.55,0,7.55-0.82,9.21c-0.36,0.74-0.96,1.48-2.92,1.96l-1.07,0.26l0.02-1.1
		c0.02-1.51,0.02-3.22,0.02-5.16v-9.64c0-0.77-0.63-1.4-1.41-1.4s-1.41,0.63-1.41,1.4v9.64c0,7.49,0,11.62-1.26,13.26
		c-1.13,1.47-4.02,1.47-9.76,1.47C44.67,97.19,41.79,97.19,40.66,95.72z"/>
</g>
</svg>
