<?xml version="1.0" encoding="utf-8"?>
<!-- Generator: Adobe Illustrator 26.2.1, SVG Export Plug-In . SVG Version: 6.00 Build 0)  -->
<svg version="1.1" id="Шар_1" xmlns="http://www.w3.org/2000/svg" xmlns:xlink="http://www.w3.org/1999/xlink" x="0px" y="0px"
	 viewBox="0 0 800 800" style="enable-background:new 0 0 800 800;" xml:space="preserve">
<style type="text/css">
	.st0{fill:#FFA500;}
</style>
<path class="st0" d="M792,206.6l-95-73.2c-6.5-4.1-13.5-7.3-20.8-9.5c-7.3-2.4-15-3.7-22.7-3.9H380l32,200h241.4
	c6.6,0,14.8-1.5,22.6-3.9c7.9-2.4,15.5-5.8,20.8-9.4l95-73.3c5.4-3.6,8.1-8.5,8.1-13.4C800,215.1,797.3,210.3,792,206.6L792,206.6z
	 M340,40h-40c-11,0-20,9-20,20v140H146.6c-6.6,0-14.8,1.5-22.7,4c-7.9,2.4-15.5,5.7-20.8,9.4L8,286.6c-5.4,3.6-8,8.5-8,13.4
	c0,4.8,2.6,9.7,8,13.4l95,73.3c5.4,3.6,12.9,7,20.8,9.4c7.9,2.4,16,3.9,22.7,3.9H280v340c0,11,9,20,20,20h40c11,0,20-9,20-20V60
	C360,49,351,40,340,40z"/>
</svg>
