<?xml version="1.0" encoding="utf-8"?>
<!-- Generator: Adobe Illustrator 26.2.1, SVG Export Plug-In . SVG Version: 6.00 Build 0)  -->
<svg version="1.1" id="Шар_1" xmlns="http://www.w3.org/2000/svg" xmlns:xlink="http://www.w3.org/1999/xlink" x="0px" y="0px"
	 viewBox="0 0 800 800" style="enable-background:new 0 0 800 800;" xml:space="preserve">
<style type="text/css">
	.st0{fill:#FFA500;}
</style>
<path class="st0" d="M533.3,733.3H400c-45,0-88.6-8.8-129.8-26.2c-39.7-16.8-75.3-40.8-105.9-71.4c-30.6-30.6-54.6-66.2-71.4-105.9
	C75.5,488.6,66.7,445,66.7,400c0-45,8.8-88.6,26.2-129.8c16.8-39.7,40.8-75.3,71.4-105.9c30.6-30.6,66.2-54.6,105.9-71.4
	C311.4,75.5,355,66.7,400,66.7c45,0,88.6,8.8,129.8,26.2c39.7,16.8,75.3,40.8,105.9,71.4c30.6,30.6,54.6,66.2,71.4,105.9
	c17.4,41.1,26.2,84.8,26.2,129.8v50c0,64.3-52.3,116.7-116.7,116.7c-40.1,0-75.5-20.3-96.5-51.2c-30.3,31.6-73,51.2-120.1,51.2
	c-91.9,0-166.7-74.8-166.7-166.7c0-91.9,74.8-166.7,166.7-166.7c91.9,0,166.7,74.8,166.7,166.7v50c0,27.6,22.4,50,50,50
	c27.6,0,50-22.4,50-50v-50c0-147-119.6-266.7-266.7-266.7S133.3,253,133.3,400S253,666.7,400,666.7h133.3
	c18.4,0,33.3,14.9,33.3,33.3S551.7,733.3,533.3,733.3z M400,300c-55.1,0-100,44.9-100,100c0,55.1,44.9,100,100,100
	c55.1,0,100-44.9,100-100C500,344.9,455.1,300,400,300z"/>
</svg>
