<?xml version="1.0" encoding="utf-8"?>
<!-- Generator: Adobe Illustrator 26.2.1, SVG Export Plug-In . SVG Version: 6.00 Build 0)  -->
<svg version="1.1" id="Шар_1" xmlns="http://www.w3.org/2000/svg" xmlns:xlink="http://www.w3.org/1999/xlink" x="0px" y="0px"
	 viewBox="0 0 800 800" style="enable-background:new 0 0 800 800;" xml:space="preserve">
<style type="text/css">
	.st0{fill-rule:evenodd;clip-rule:evenodd;fill:#FFA500;}
	.st1{fill:#FFA500;}
</style>
<path class="st0" d="M42.5,131.4c57.9-35.1,185.5-98,357.5-98s299.6,62.9,357.5,98c33.3,20.2,47,58.4,41.2,93.7l-15.3,92.6
	c-8.9,54.2-60,90.5-113.4,80.7l-82.2-15.1c-34.9-6.4-58.2-40-52.4-75.4l7.7-46.5c-19.6-11.6-64.1-31.1-143.1-31.1
	c-79,0-123.5,19.5-143.1,31.1l7.7,46.5c5.8,35.4-17.5,69-52.4,75.4L130,398.4c-53.4,9.8-104.5-26.5-113.4-80.7L1.3,225.1
	C-4.5,189.7,9.2,151.6,42.5,131.4z M400,99c-156.4,0-272.4,57.3-324.2,88.7c-7.6,4.6-12.5,14.4-10.5,26.6l15.3,92.6
	c3,18.1,20,30.2,37.8,26.9l82.2-15.1l-8.2-49.9c-3.4-20.4,2.9-45.4,24.9-59.8c27.4-17.9,84.8-44.3,182.7-44.3
	c97.9,0,155.3,26.4,182.7,44.3c22,14.4,28.3,39.4,24.9,59.8l-8.2,49.9l82.2,15.1c17.8,3.3,34.8-8.8,37.8-26.9l15.3-92.6
	c2-12.2-3-22-10.5-26.6C672.4,156.3,556.4,99,400,99z"/>
<path class="st1" d="M133.3,733.3c0-18.4,14.9-33.3,33.3-33.3h466.7c18.4,0,33.3,14.9,33.3,33.3c0,18.4-14.9,33.3-33.3,33.3H166.7
	C148.3,766.7,133.3,751.7,133.3,733.3z"/>
<path class="st1" d="M66.7,600c-18.4,0-33.3,14.9-33.3,33.3c0,18.4,14.9,33.3,33.3,33.3h66.7c18.4,0,33.3-14.9,33.3-33.3
	c0-18.4-14.9-33.3-33.3-33.3H66.7z"/>
<path class="st1" d="M633.3,633.3c0-18.4,14.9-33.3,33.3-33.3h66.7c18.4,0,33.3,14.9,33.3,33.3c0,18.4-14.9,33.3-33.3,33.3h-66.7
	C648.3,666.7,633.3,651.7,633.3,633.3z"/>
<path class="st1" d="M566.7,500c-18.4,0-33.3,14.9-33.3,33.3c0,18.4,14.9,33.3,33.3,33.3h66.7c18.4,0,33.3-14.9,33.3-33.3
	c0-18.4-14.9-33.3-33.3-33.3H566.7z"/>
<path class="st1" d="M233.3,633.3c0-18.4,14.9-33.3,33.3-33.3h66.7c18.4,0,33.3,14.9,33.3,33.3c0,18.4-14.9,33.3-33.3,33.3h-66.7
	C248.3,666.7,233.3,651.7,233.3,633.3z"/>
<path class="st1" d="M166.7,500c-18.4,0-33.3,14.9-33.3,33.3c0,18.4,14.9,33.3,33.3,33.3h66.7c18.4,0,33.3-14.9,33.3-33.3
	c0-18.4-14.9-33.3-33.3-33.3H166.7z"/>
<path class="st1" d="M433.3,633.3c0-18.4,14.9-33.3,33.3-33.3h66.7c18.4,0,33.3,14.9,33.3,33.3c0,18.4-14.9,33.3-33.3,33.3h-66.7
	C448.3,666.7,433.3,651.7,433.3,633.3z"/>
<path class="st1" d="M366.7,500c-18.4,0-33.3,14.9-33.3,33.3c0,18.4,14.9,33.3,33.3,33.3h66.7c18.4,0,33.3-14.9,33.3-33.3
	c0-18.4-14.9-33.3-33.3-33.3H366.7z"/>
</svg>
